<svg width="764" height="573" viewBox="0 0 764 573" fill="none" xmlns="http://www.w3.org/2000/svg">
<path fill-rule="evenodd" clip-rule="evenodd" d="M212.789 339.552C216.272 337.178 223.396 328.68 227.128 326.716C235.426 322.349 272.397 313.764 273.599 313.257C275.43 312.485 287.323 309.786 294.252 308.08C310.524 304.076 368.836 278.21 384.206 271.578C386.168 276.741 402.366 299.533 399.587 301.869C390.438 309.559 374.04 319.134 363.442 324.645C354.871 329.102 345.793 332.79 336.628 335.802C326.222 339.222 319.08 342.888 308.71 346.386C298.507 349.828 310.7 360.592 315.94 362.815C321.817 365.31 330.92 366.577 336.925 368.739C326.352 385.171 317.473 405.115 315.697 424.799C315.27 429.537 311.658 433.88 305.784 432.462C302.753 431.73 274.787 428.005 270.227 426.965C239.784 420.022 185.134 383.666 199.207 346.386C202.431 347.875 209.792 341.594 212.789 339.552Z" fill="#9570DD"/>
<path fill-rule="evenodd" clip-rule="evenodd" d="M229.82 141.758C232.094 141.566 237.975 137.023 234.889 134.725C231.776 132.407 229.539 140.176 229.82 141.758ZM111.351 159.181C111.945 159.076 111.686 155.823 110.75 155.407C107.796 154.096 107.546 159.025 107.474 160.344C107.384 162.009 107.176 166.698 110.768 165.413C112.807 164.683 111.542 160.429 111.351 159.181ZM285.754 174.379C285.674 177.283 291.54 182.867 293.728 179.517C295.567 176.703 285.905 168.599 285.754 174.379ZM78.3399 108.888C80.0397 113.224 88.4456 107.315 88.758 104.134C89.3995 97.6211 78.2521 104.555 78.3399 108.888ZM148.472 127.582C152.387 127.26 157.538 122.283 161.313 120.424C163.868 119.166 170.819 117.666 171.575 114.81C172.233 112.327 160.439 117.641 159.432 118.112C154.805 120.28 150.633 122.751 148.472 127.582ZM442.356 93.2617C445.477 90.8491 449.27 89.2927 453.27 89.3947C455.267 89.4456 459.434 90.6952 459.59 87.241C459.846 81.6239 442.205 88.4743 439.449 89.5761C440.418 90.8053 441.388 92.0335 442.356 93.2617ZM247.703 312.156C245.413 308.354 241.296 306.157 238.2 302.914C239.335 308.239 236.777 312.975 235.019 317.836C239.247 315.943 243.474 314.049 247.703 312.156ZM645.225 393.191C646.487 388.97 647.75 384.771 649.226 380.614C650.876 375.958 651.696 375.556 647.746 372.301C644.468 378.497 641.189 384.694 637.91 390.892C640.244 391.884 642.68 392.85 645.225 393.191ZM305.898 87.5651C301.557 82.6721 281.212 82.3649 283.73 93.1641C284.608 96.9351 289.61 92.9291 292.744 92.0502C295.853 91.1774 304.659 91.0615 305.898 87.5651ZM305.152 156.84C304.626 155.591 303.575 151.084 302.016 150.729C300.497 150.383 294.503 155.11 293.376 155.832C287.756 159.433 282.277 163.307 276.8 167.125C278.897 167.125 280.801 166.378 282.886 166.362C285.363 166.341 287.14 167.358 289.555 166.778C294.743 165.532 300.766 159.782 305.152 156.84ZM310.775 45.1911C311.262 42.953 336.698 49.6715 339.755 50.9017C341.42 51.5708 350.013 56.0375 348.167 49.3054C347.116 45.4711 337.186 42.5482 334.004 41.4973C325.914 38.8271 317.385 36.9278 308.771 37.3683C307.098 37.4532 294.43 38.1842 299.72 43.276C301.543 45.0296 308.076 44.4769 310.775 45.1911ZM316.343 352.688C321.082 355.02 325.921 356.803 330.874 358.627C333.074 359.436 336.502 361.557 338.93 361.025C340.918 360.587 341.555 357.56 342.599 355.533C346.418 348.118 350.978 342.137 356.632 336.023C354.007 334.109 340.68 342.555 337.382 343.802C334.081 345.05 330.966 346.307 327.735 347.798C324.693 349.203 318.691 350.458 316.343 352.688ZM400.252 289.484C407.158 286.359 413.705 280.817 419.369 275.855C425.873 270.157 431.703 264.186 436.464 256.813C433.599 256.96 427.273 266.176 427.203 256.142C427.167 251.024 434.181 245.983 436.358 241.235C430.942 238.178 425.979 256.447 419.765 252.019C413.779 247.751 423.224 233.081 425.043 228.452C421.532 226.116 401.528 252.264 398.633 255.61C396.822 257.704 392.539 260.492 391.517 262.935C390.908 264.389 390.821 269.004 391.116 270.342C391.728 273.139 394.831 276.489 396.213 279.094C397.962 282.391 399.485 285.818 400.252 289.484ZM685.776 383.755C679.803 375.324 685.972 371.648 690.829 364.651C694.713 359.054 698.287 352.884 700.748 346.634C706.906 331.001 712.462 316.467 715.503 299.93C711.318 301.84 708.702 309.111 706.608 312.943C703.793 318.093 701.316 323.499 698.187 328.49C692.332 337.829 686.583 347.79 679.135 355.885C675.76 359.553 672.903 363.68 669.01 366.985C667.231 368.495 663.828 369.735 662.517 371.622C661.28 373.405 662.664 374.544 662.194 376.674C661.712 378.858 659.502 381.187 658.554 383.291C657.308 386.054 656.148 388.823 654.759 391.525C653.242 394.471 652.828 396.011 652.419 398.891C651.973 402.039 653.343 402.366 650.593 405.267C655.575 407.464 660.558 409.661 665.54 411.857C667.22 412.599 668.902 413.34 670.584 414.082C670.938 413.418 671.293 412.753 671.647 412.089C673.016 410.759 674.275 407.479 675.058 405.723C678.332 398.393 682.029 391.034 685.776 383.755ZM204.668 348.366C190.522 385.61 240.233 416.969 270.834 423.905C275.073 424.865 279.209 426.123 283.428 427.154C288.028 428.279 292.114 428.055 296.706 428.526C300.359 428.899 302.1 431.722 305.543 432.5C311.295 433.799 310.943 429.477 311.355 424.844C313.102 405.203 323.125 386.253 333.735 369.865C328.888 368.131 324.087 366.239 319.303 364.341C315.209 362.716 308.941 358.148 304.54 357.906C301.285 357.728 296.326 360.508 293.164 361.728C287.9 363.759 282.619 365.49 277.133 366.875C267.538 369.298 256.861 372.6 246.933 372.85C244.071 372.922 236.219 374.256 234.159 372.487C230.232 369.114 235.683 366.302 238.971 365.098C258.567 357.922 279.373 354.871 299.025 347.514C309.137 343.727 319.145 339.499 329.321 335.769C338.093 332.554 347.281 329.707 355.758 325.753C366.952 320.532 378.196 314.027 387.89 306.364C389.83 304.831 393.895 302.553 395.225 300.331C396.396 298.375 396.25 300.326 396.007 297.954C395.833 296.25 393.748 293.941 392.89 292.332C389.696 286.331 386.809 280.167 384.382 273.816C368.918 280.449 354.207 289.477 338.97 296.565C323.635 303.699 306.337 308.733 289.931 312.747C282.949 314.456 274.921 314.996 268.518 318.372C265.797 319.806 263.107 321.465 260.193 322.295C259.332 323.946 258.485 324.269 257.65 323.265C257.127 322.678 256.451 322.43 255.621 322.521C253.839 322.823 252.021 323.665 250.354 324.312C241.916 327.583 233.837 331.679 225.827 335.858C222.03 337.838 218.136 339.788 214.502 342.049C212.554 343.262 210.809 344.484 209.216 346.149C207.305 348.144 207.76 349.785 204.668 348.366ZM522.996 127.231C526.571 127.289 529.829 125.353 533.557 125.461C539.42 125.63 544.061 130.176 547.463 134.559C554.196 143.232 552.479 153.694 549.097 163.4C547.478 168.038 545.257 172.491 542.481 176.551C540.023 180.146 535.63 183.546 533.914 187.548C531.086 194.149 536.793 191.342 540.287 189.932C544.68 188.158 548.8 185.953 552.529 182.983C569.149 169.746 581.793 151.347 586.028 130.216C588.094 119.906 587.935 107.854 580.753 99.4392C574.188 91.7451 562.854 89.231 553.165 90.6576C542.692 92.201 533.201 96.6368 524.673 102.347C522.195 104.006 519.927 105.817 517.601 107.673C514.55 110.107 512.722 110.172 513.485 113.987C514.052 116.824 515.597 119.763 516.593 122.484C518.456 127.583 517.776 128.902 522.996 127.231ZM534.394 215.122L533.671 216.358C538.657 216.596 543.302 212.197 547.551 210.049C553.07 207.258 557.971 203.451 562.808 199.606C571.338 192.825 579.979 185.183 586.327 176.281C600.561 156.324 613.489 131.024 609.605 105.722C605.419 78.4531 581.568 67.9563 556.154 71.5663C544.701 73.1928 534.476 78.3063 524.225 83.4973C519.059 86.1145 514.699 89.5093 509.965 92.7956C507.509 94.5018 505.268 94.7231 505.108 97.7063C504.987 99.9544 508.873 105.038 509.924 107.075C522.793 93.9465 536.662 83.0857 556.097 82.4146C579.219 81.6163 592.891 103.54 592.79 124.533C592.69 145.121 583.81 164.926 569.654 179.722C563.221 186.447 557.088 191.842 549.188 196.75C545.251 199.197 542.346 201.393 537.943 203.017C534.829 204.167 535.153 203.561 534.359 206.444C533.684 208.891 534.373 212.581 534.394 215.122ZM408.758 494.84C408.458 498.55 407.703 502.203 406.864 505.822C406.563 507.121 404.866 511.224 405.163 512.685C405.655 515.1 405 513.547 407.116 514.807C409.324 516.123 411.893 516.043 414.31 516.443C415.801 516.689 421.267 519.261 422.185 518.855C423.792 518.145 423.741 515.641 425.505 514.649C427.907 513.296 431.447 514.455 433.713 515.513C439.772 518.339 443.934 524.189 449.797 527.392C460.208 533.077 472.561 536.225 484.176 537.524C490.468 538.228 496.907 539.462 503.122 537.988C508.017 536.826 514.381 536.933 517.042 531.68C493.39 525.175 457.29 517.216 447.938 490.073C442.855 494.682 434.359 492.2 428.215 491.563C421.456 490.864 415.416 491.026 409.236 487.945C408.783 490.367 408.645 492.377 408.758 494.84ZM199.345 326.731C210.479 327.404 221.034 322.135 227.886 313.245C229.572 311.056 231.302 308.821 232.314 306.227C232.534 305.57 232.753 304.911 232.972 304.254C234.035 302.439 233.57 301.582 231.577 301.684C230.454 300.145 227.607 299.627 228.417 296.836C229.027 294.73 231.278 294.696 233.234 294.033C232.26 292.397 231.677 291.575 230.283 290.119C226.658 293.379 220.082 299.778 217.535 292.288C216.312 288.693 218.465 285.256 217.932 281.788C217.712 280.354 215.894 276.69 214.84 275.832C209.227 271.263 201.143 273.154 195.188 275.843C191.084 277.697 190.201 278.567 189.531 282.817C188.851 287.139 188.22 291.458 187.466 295.767C189.929 294.484 190.377 291.711 191.983 289.715C192.585 290.81 193.186 291.907 193.79 293.002C194.638 292.527 195.43 292.552 196.164 293.079C197.353 294.906 196.604 297.615 196.239 299.531C200.202 299.161 201.877 303.583 197.882 305.373C193.743 307.228 191.877 302.171 191.736 298.895C190.192 300.74 188.606 299.753 187.53 300.701C186.454 301.648 186.03 303.623 185.647 305.786C185.019 309.339 183.409 314.467 184.898 318.032C187.109 323.327 194.157 326.082 199.345 326.731ZM521.975 156.661C518.291 161.784 512.009 168.491 510.696 174.681C514.754 172.3 523.333 160.842 525.543 169.969C526.812 175.208 520.305 181.451 518.706 186.523C525.105 184.418 529.663 177.824 533.656 172.735C538.747 166.246 543.946 157.693 545.245 149.442C546.296 142.765 541.664 136.542 534.782 135.888C531.267 135.553 527.597 136.111 524.2 136.927C522.651 137.298 520.341 137.759 518.959 138.589C517.223 139.63 516.986 142.071 515.351 140.041C513.179 144.135 511.007 148.228 508.835 152.321C510.997 151.537 515.407 148.208 517.77 148.552C521.219 149.055 521.928 154.066 521.975 156.661ZM177.033 56.4378C167.375 56.7225 157.28 58.7792 148.136 61.8366C145.866 62.5964 136.287 65.2989 138.304 69.2166C139.637 71.8061 146.826 68.1469 148.999 67.5367C158.313 64.9211 167.904 63.1962 177.444 61.622C179.754 61.241 187.591 61.2787 187.995 58.2507C188.49 54.5559 179.761 56.4336 177.033 56.4378ZM439.891 477.848C434.657 478.487 429.63 478.248 424.39 477.607C419.98 477.067 415.489 475.262 411.101 475.262C411.101 479.959 410.783 479.988 415.738 480.993C419.197 481.695 422.705 482.089 426.201 482.578C432.355 483.439 439.187 485.854 445.417 484.613C445.266 483.798 444.789 478.294 444.144 477.749C443.78 477.444 440.42 477.853 439.891 477.848ZM355.283 130.326C356.746 131.258 360.111 134.977 361.855 135.043C361.232 130.737 356.428 123.24 350.912 125.901C349.56 126.554 346.72 129.802 348.005 131.236C348.691 132.002 353.489 130.331 355.283 130.326ZM304.243 168.63C304.296 167.879 304.35 167.129 304.406 166.379C302.381 167.569 299.875 168.132 298.437 170.05C300.164 170.815 301.889 171.581 303.617 172.348C303.826 171.108 304.034 169.869 304.243 168.63ZM463.665 282.945C473.229 286.294 481.998 290.768 489.037 298.361C495.122 304.927 497.983 316.496 499.468 325.103C503.143 346.401 496.051 366.141 491.374 386.516C489.002 396.852 485.46 406.798 482.144 416.866C479.248 425.658 476.765 434.866 472.768 443.226C469.379 450.315 465.05 457.303 462.068 464.657C460.464 468.614 457.864 482.195 451.775 477.93C450.113 482.274 449.709 481.904 451.485 484.922C452.772 487.107 457.132 490.14 459.19 491.919C464.675 496.661 471.621 500.569 478.054 503.889C489.838 509.971 502.47 514.521 514.605 520.065C519.97 522.518 525.788 525.416 524.584 532.434C523.575 538.318 520.171 542.779 514.861 545.397C509.876 547.855 502.745 549.753 497.261 550.524C494.007 550.982 493.261 549.628 490.608 549.16C487.656 548.64 484.21 549.646 481.164 549.62C467.491 549.5 455.52 546.06 444.471 538.131C440.522 535.298 434.71 527.611 429.543 527.612C426.901 527.612 427.459 529.217 425.135 530.158C422.268 531.32 417.328 529.128 414.509 528.613C408.504 527.517 402.397 526.403 398.398 521.231C394.074 515.641 395.611 508.717 397.469 502.509C399.563 495.512 403.087 488.412 404.584 481.309C404.949 479.581 405.285 476.36 404.915 474.602C404.339 471.874 401.585 470.247 401.502 467.294C401.476 466.395 402.762 465.21 402.987 464.283C403.484 462.246 403.407 460.133 403.611 458.06C403.976 454.363 404.82 450.82 405.401 447.166C406.723 438.851 409.331 431.434 411.855 423.422C414.304 415.646 416.634 409.859 421.369 403.126C423.82 399.64 432.02 387.217 428.015 383.642C422.535 394.406 416.127 402.801 407.74 411.371C401.325 417.926 395.053 426.738 387.025 431.406C378.198 436.539 367.411 439.558 357.663 442.273C353.027 443.562 349.18 446.425 344.182 446.954C338.765 447.527 333.252 446.851 327.947 445.643C326.454 445.304 322.147 443.009 320.796 443.155C318.805 443.372 315.942 446.92 313.757 447.571C308.44 449.157 304.809 446.127 300.775 443.327C296.398 440.288 295.073 439.533 290.022 439.167C283.836 438.719 277.819 436.539 271.734 435.203C261.035 432.856 251.941 428.099 242.217 423.119C231.069 417.412 221.534 409.541 213.131 400.243C200.78 386.574 183.578 348.697 203.755 335.435C191.877 333.822 180.998 328.635 179.55 315.191C178.793 308.156 180.217 300.363 181.986 293.582C182.794 290.486 183.756 287.409 184.679 284.345C185.373 283.31 185.741 282.178 185.779 280.947C186.205 279.353 185.591 278.558 183.936 278.565C180.807 274.907 178.455 271.678 177.822 266.484C177.623 264.838 177.445 262.314 178.616 260.915C179.158 260.352 179.812 259.976 180.576 259.788C182.409 259.892 182.927 258.989 182.13 257.079C183.021 254.372 181.7 252.263 185.055 251.133C186.13 251.362 187.201 251.612 188.267 251.883C189.628 252.503 190.513 252.054 190.924 250.538C194.085 249.301 192.627 247.473 196.922 249.064C199.521 250.027 201.993 251.686 203.886 253.706C206.26 252.182 200.861 242.762 200.68 239.757C200.253 232.673 203.182 226.816 206.992 220.997C214.399 209.69 224.737 199.967 234.931 191.218C254.458 174.464 274.972 158.513 297.021 145.165C287.925 138.848 277.299 137.136 266.475 140.072C256.498 142.779 248.411 147.694 239.226 151.994C230.718 155.976 221.686 157.612 218.973 146.745C215.934 134.573 225.631 130.054 234.33 124.596C232.158 122.976 225.008 124.134 222.303 124.325C216.279 124.751 210.518 126.111 204.664 127.314C201.856 127.89 199.277 127.761 196.496 128.325C192.361 129.164 188.044 130.105 183.86 131.3C173.907 134.147 164.028 138.467 155.428 144.288C147.994 149.316 142.838 156.417 136.849 162.957C130.019 170.413 123.474 177.75 113.348 180.48C108.607 181.758 103.046 182.918 99.6837 178.683C96.5561 174.746 96.382 170 96.4846 165.185C96.7106 154.55 101.849 143.057 107.825 134.367C114.312 124.934 123.001 119.531 131.21 111.938C119.345 112.786 107.877 119.041 96.9644 123.364C94.668 124.275 92.3498 125.297 90.0409 126.139C87.5786 127.038 85.9475 126.487 83.5888 126.899C78.2052 127.838 73.5812 130.107 68.3447 126.49C58.4376 119.647 68.3634 105.727 75.1844 101.456C84.6852 95.5077 94.3509 90.4989 104.818 86.2557C99.1511 80.1095 103.991 71.3382 109.214 66.978C115.822 61.4605 124.237 58.2989 132.2 55.3454C138.498 53.0094 144.682 50.7666 151.225 49.3608C158.101 47.8835 166.143 45.6262 173.122 45.8427C179.666 46.0458 185.469 44.8928 192.098 44.7084C197.613 44.5551 203.14 44.6877 208.655 44.5447C223.491 44.1614 238.383 45.1621 252.883 46.2291C241.395 12.6337 317.069 23.0086 333.214 27.3968C347.886 31.3852 364.697 36.0117 377.021 45.475C382.241 49.483 387.2 54.0401 391.832 58.7163C398.667 65.6157 402.451 74.6511 406.065 83.5695C415.234 79.0777 424.002 74.1829 434.034 71.9556C443.581 69.8371 453.359 66.9655 462.962 65.365C470.262 64.1478 480.859 63.3221 487.003 68.477C493.676 74.0762 497.152 82.7895 501.136 90.2513C520.266 72.0996 541.604 58.8572 568.878 59.7378C595.568 60.5997 613.118 83.6472 616.354 108.623C619.918 136.142 607.659 164.899 591.042 186.21C583.591 195.768 575.881 204.998 565.851 212.128C560.878 215.663 555.631 219.535 550.178 222.295C547.459 223.671 544.486 224.914 541.631 225.973C540.343 226.45 539.016 226.93 537.676 227.254C533.85 228.182 534.593 226.943 533.17 230.293C532.016 233.012 532.158 237.69 531.664 240.675C531.099 244.086 530.763 247.544 529.938 250.909C528.509 256.741 527.021 262.431 525.231 268.126C521.843 278.905 517.283 289.769 511.697 299.601C516.434 301.658 523.067 301.866 528.13 302.489C533.609 303.164 539.095 304.581 544.786 306.172C556.19 309.361 566.38 312.052 577.224 316.826C588.481 321.781 598.515 329.181 609.355 335.071C619.323 340.486 629.399 347.27 638.656 353.771C640.858 355.318 642.222 356.663 643.976 358.622C645.769 360.623 646.34 361.015 648.484 362.749C649.45 363.53 652.261 367.473 653.365 367.618C655.341 367.88 655.037 366.405 656.589 364.345C659.828 360.046 664.346 356.715 667.563 352.307C670.246 348.632 673.044 344.91 675.912 341.749C682.852 334.1 688.602 325.622 693.536 316.452C696.104 311.678 698.808 307.134 701.596 302.629C704.373 298.143 709.309 292.223 714.837 292.488C714.393 290.204 712.98 289.824 715.418 288.427C716.988 287.527 720.044 288.977 721.254 289.891C724.456 292.311 724.598 297.006 724.396 300.532C723.876 309.621 721.974 318.592 719.323 327.185C716.138 337.515 712.145 346.63 707.787 356.489C704.318 364.343 700.01 374.729 691.376 378.314C697.175 386.592 694.39 393.338 690.515 402.127C687.683 408.552 683.942 415.191 678.244 419.443C671.821 424.236 664.855 420.17 658.138 417.002C654.081 415.087 641.674 410.572 644.197 404.683C641.098 404.269 639.148 402.018 636.328 401.325C633.341 400.592 633.854 401.805 630.694 402.259C628.271 402.607 624.647 400.438 622.367 399.661C618.556 398.365 614.757 397.036 610.952 395.726C600.241 392.037 589.711 388.405 578.895 385.449C558.771 379.95 538.399 376.831 518.345 371.921C514.325 370.937 510.328 369.987 506.142 369.198C505.278 369.036 500.794 368.786 500.249 367.861C499.295 366.24 502.228 357.167 502.48 355.318C504.133 343.181 503.593 329.894 501.265 317.895C500.298 312.907 495.978 306.448 496.016 301.579C496.042 298.312 498.936 294.746 500.636 291.787C504.839 284.471 509.243 276.567 512.357 268.954C517.124 257.308 520.045 244.162 522.15 231.688C523.247 225.185 524.523 218.136 524.822 211.558C525.05 206.544 524.638 201.284 525.366 196.149C522.591 196.412 518.664 197.85 516.165 196.311C513.008 194.368 512.16 188.823 512.563 185.511C501.756 187.398 502.114 177.148 502.784 169.133C483.25 169.133 508.266 140.107 511.391 133.874C512.828 131.008 512.785 134.227 512.151 129.795C511.872 127.847 510.541 125.688 509.787 123.897C508.146 119.986 506.37 116.135 504.475 112.342C500.47 104.329 495.933 96.5861 490.981 89.1211C486.524 92.2269 482.506 95.9034 478.784 99.8483C481.172 93.6036 488.467 85.8673 485.347 78.7763C482.455 72.2032 472.795 72.659 467.09 73.8607C451.589 77.1291 436.722 81.8892 421.955 87.4004C426.529 90.0234 433.533 87.9971 438.078 85.9916C443.706 83.5074 449.758 80.901 455.823 79.5853C461.114 78.4375 468.061 78.8291 466.533 85.9543C465.293 91.7276 459.646 97.2874 455.921 101.604C447.711 111.115 437.418 118.478 427.306 125.834C416.438 133.742 405.965 142.334 394.958 150.013C375.062 163.894 353.669 175.959 333.113 188.916C322.431 195.649 310.327 201.067 298.743 206.057C286 211.546 273.781 217.423 260.56 221.759C253.218 224.167 245.941 226.149 238.726 228.889C234.204 230.605 226.329 234.046 223.341 228.948C217.273 218.594 239.233 204.976 245.251 198.646C249.402 202.678 228.93 217.702 230.532 223.572C231.791 228.185 236.661 222.229 239.012 220.971C242.812 218.939 247.313 217.917 251.132 215.599C258.965 210.843 268.253 205.359 270.041 195.528C268.797 194.214 268.812 193.002 270.088 191.89C270.656 191.215 271.107 190.473 271.438 189.664C271.996 188.12 272.22 186.184 272.518 184.547C273.4 179.705 271.187 175.171 273.255 170.433C261.183 179.58 249.578 189.913 238.119 199.815C227.84 208.697 217.114 220.328 213.337 233.582C212.853 235.28 212.049 237.206 212.137 238.999C212.309 242.517 212.66 241.758 215.494 242.89C218.33 244.021 222.457 243.923 225.506 244.044C227.244 244.111 235.005 242.271 233.462 246.084C232.573 248.283 227.192 248.2 225.266 248.403C220.431 248.914 217.809 248.389 220.1 253.63C221.127 255.979 223.206 257.57 224.839 259.388C229.38 264.445 231.846 272.203 235.418 278.145C239.489 284.914 243.963 291.351 248.716 297.656C250.678 300.257 253.3 305.145 256.019 307.002C258.558 308.735 255.57 308.592 259.788 307.887C261.627 307.582 263.293 306.385 265.052 305.958C275.566 303.396 286.374 300.509 297.248 297.347C311.156 293.303 325.752 289.854 339.022 284.03C350.91 278.811 362.709 272.598 374.721 267.313C378.229 265.77 381.733 264.748 384.459 261.908C387.75 258.483 390.475 253.997 393.51 250.314C398.672 244.05 403.43 237.678 408.987 231.741C413.122 227.324 420.452 219.112 426.288 217.349C437.375 213.999 431.44 230.887 430.007 235.155C432.613 235.747 433.983 232.404 437.043 233.365C440.705 234.517 441.084 239.388 441.542 242.44C441.663 243.253 440.563 244.773 440.898 245.498C441.012 245.746 443.401 247.159 443.862 247.813C445.536 250.193 445.207 253.086 444.572 255.652C441.291 268.943 429.629 278.649 421.051 288.453C424.889 287.727 427.733 285.54 431.355 284.457C434.755 283.439 438.173 283.492 441.6 283.201C445.188 282.895 448.635 281.553 452.305 281.485C456.157 281.413 459.845 282.51 463.665 282.945Z" fill="black"/>
<path fill-rule="evenodd" clip-rule="evenodd" d="M57.9988 163.395C55.8836 164.777 55.2874 166.134 55.2144 169.323C55.1851 170.631 55.2754 175.511 57.1036 175.327C58.8192 175.154 57.9988 165.073 57.9988 163.395ZM47.0724 171.343C48.058 161.12 51.7979 150.727 60.5957 144.357C62.7715 142.782 65.2328 142.838 67.6173 141.844C69.0504 141.247 71.3146 138.472 72.9416 138.8C78.9308 140.012 72.0115 147.97 70.9982 150.063C67.8581 156.549 68.0702 162.248 68.1639 169.244C68.2353 174.562 69.3403 183.526 66.6595 188.339C63.8018 193.464 57.6038 190.136 54.1441 187.103C49.7777 183.274 46.48 177.176 47.0724 171.343Z" fill="black"/>
<path fill-rule="evenodd" clip-rule="evenodd" d="M152.21 201.551C152.21 207.255 156.84 203.393 156.675 199.336C156.433 193.363 151.994 197.041 152.21 201.551ZM176.824 170.017C171.756 174.574 167.848 177.131 166.871 184.138C166.132 189.446 166.867 194.703 166.898 200.049C166.951 209.012 159.714 218.433 151.926 208.16C146.246 200.667 148.283 188.885 152.915 181.354C155.347 177.403 158.817 173.494 162.825 171.032C165.84 169.179 174.322 165.533 176.824 170.017Z" fill="black"/>
<path fill-rule="evenodd" clip-rule="evenodd" d="M106.058 308.137C105.471 309.527 104.092 315.201 106.905 313.918C109.389 312.784 107.78 309.023 106.058 308.137ZM91.1904 290.617C90.756 288.483 90.9331 275.105 94.6178 276.108C97.512 276.895 97.9901 283.742 99.1692 286.126C103.56 295 113.637 300.527 117.113 309.687C120.992 319.916 109.264 320.233 103.041 316.091C95.6727 311.186 91.4092 299.176 91.1904 290.617Z" fill="black"/>
<path fill-rule="evenodd" clip-rule="evenodd" d="M82.1573 235.766C83.7565 233.607 83.9182 232.453 83.0066 230.543C81.8413 231.81 82.0482 233.622 82.1573 235.766ZM83.3144 245.424C74.978 246.357 74.5606 230.994 75.9885 225.719C77.1252 221.519 79.5696 217.004 82.0857 213.581C82.594 212.891 87.4139 206.684 88.3587 206.669C91.9843 206.612 90.988 210.708 90.5969 212.233C89.3652 217.038 88.8771 221.054 89.2085 226.381C89.5642 232.081 92.2632 245.613 83.3144 245.424Z" fill="black"/>
<path fill-rule="evenodd" clip-rule="evenodd" d="M461.832 112.375C449.912 122.372 438.595 133.195 425.633 141.939C419.291 146.218 412.66 150.004 406.331 154.353C403.108 156.569 399.819 158.551 396.243 160.18C393.084 161.618 391.019 161.805 393.64 158.391C395.391 156.11 399.318 154.521 401.705 152.9C405.378 150.403 408.846 147.633 412.709 145.418C419.52 141.511 426.289 138.357 432.567 133.565C438.139 129.313 443.888 125.161 449.206 120.643C451.486 118.705 459.048 109.809 461.832 112.375Z" fill="black"/>
<path fill-rule="evenodd" clip-rule="evenodd" d="M462.073 148.473C467.434 153.058 454.021 165.621 450.962 168.468C447.737 171.471 444.184 174.149 440.676 176.81C439.442 177.747 432.705 184.016 430.995 183.51C427.621 182.511 432.05 178.444 433.202 177.383C436.928 173.948 440.732 170.614 444.375 167.087C447.66 163.909 451.217 160.965 454.394 157.684C456.968 155.026 459.129 150.521 462.073 148.473Z" fill="black"/>
<path fill-rule="evenodd" clip-rule="evenodd" d="M64.9097 333.322C63.51 330.078 61.0033 333.679 62.2741 335.299C63.476 336.832 64.7307 333.945 64.9097 333.322ZM56.7027 326.917C57.453 322.148 59.1871 319.498 63.661 323.569C66.7353 326.366 72.9184 334.32 72.3316 338.656C71.5615 344.344 65.2972 342.73 62.0499 339.756C58.7213 336.708 57.2519 331.146 56.7027 326.917Z" fill="black"/>
<path fill-rule="evenodd" clip-rule="evenodd" d="M66.5067 420.778C61.0261 420.361 56.3503 416.153 54.0228 411.222C52.0646 407.075 50.2111 400.391 57.0909 402.571C61.5748 403.992 78.8599 421.447 66.5067 420.778Z" fill="black"/>
<path fill-rule="evenodd" clip-rule="evenodd" d="M132.927 393.744C128.692 394.708 124.502 391.918 121.897 388.773C120.277 386.814 116.505 379.946 118.406 377.119C121.054 373.176 125.054 381.102 126.433 382.671C128.597 385.127 135.672 389.826 132.927 393.744Z" fill="black"/>
<path fill-rule="evenodd" clip-rule="evenodd" d="M136.742 286.5C133.422 284.959 130.339 283.105 129.004 279.425C128.155 277.081 127.442 270.053 131.213 270.086C135.574 270.125 145.561 285.796 136.742 286.5Z" fill="black"/>
<path fill-rule="evenodd" clip-rule="evenodd" d="M113.465 213.385C117.911 213.304 118.963 215.756 119.581 219.279C120.001 221.669 122.037 229.784 119.922 231.447C116.901 233.822 112.094 228.379 111.122 226.243C109.12 221.844 111.889 217.517 113.465 213.385Z" fill="black"/>
<path fill-rule="evenodd" clip-rule="evenodd" d="M189.849 456.712C192.014 457.697 196.938 459.881 195.056 463.27C193.089 466.814 187.441 463.369 185.331 461.821C184.447 461.173 178.835 456.929 179.07 455.506C179.565 452.481 187.301 456.428 189.849 456.712Z" fill="black"/>
<path fill-rule="evenodd" clip-rule="evenodd" d="M47.2475 235.398C48.7265 239.102 50.3914 251.826 42.6028 244.955C40.2259 242.858 39.8672 240.239 40.6862 237.36C41.8703 233.188 43.5935 234.015 47.2475 235.398Z" fill="black"/>
<path fill-rule="evenodd" clip-rule="evenodd" d="M459.995 188.016C458.27 184.492 462.528 182.219 464.804 179.948C466.289 178.465 472.536 170.419 474.584 170.874C478.797 171.809 462.066 186.444 459.995 188.016Z" fill="black"/>
<path fill-rule="evenodd" clip-rule="evenodd" d="M113.409 443.244C117.473 442.591 118.421 447.106 121.04 449.073C122.162 449.918 126.017 450.66 125.242 452.451C123.204 457.157 113.21 446.407 113.409 443.244Z" fill="black"/>
<path fill-rule="evenodd" clip-rule="evenodd" d="M147.727 336.632C150.52 335.462 158.582 341.743 156.267 344.457C152.807 348.516 147.924 338.853 147.727 336.632Z" fill="black"/>
<path fill-rule="evenodd" clip-rule="evenodd" d="M206.606 427.501C204.57 427.703 195.977 425.002 199.161 421.386C201.396 418.846 207.337 425.202 206.606 427.501Z" fill="black"/>
<path fill-rule="evenodd" clip-rule="evenodd" d="M103.707 410.149C101.686 410.957 94.3948 409.294 96.6871 406.128C98.8707 403.114 103.71 407.646 103.707 410.149Z" fill="black"/>
<path fill-rule="evenodd" clip-rule="evenodd" d="M163.395 423.809C165.758 423.563 167.465 424.988 167.871 427.402C164.915 427.823 164.003 427.12 163.395 423.809Z" fill="black"/>
<path fill-rule="evenodd" clip-rule="evenodd" d="M470.785 73.4832C471.784 73.4876 472.78 73.4929 473.77 73.4973C472.77 73.4921 471.778 73.4876 470.785 73.4832Z" fill="black"/>
<path fill-rule="evenodd" clip-rule="evenodd" d="M455.117 281.274C453.625 281.276 452.132 281.279 450.641 281.28C452.133 281.277 453.626 281.276 455.117 281.274Z" fill="black"/>
<path fill-rule="evenodd" clip-rule="evenodd" d="M251.537 38.0508C251.469 39.5447 251.4 41.0386 251.33 42.5273C251.397 41.0321 251.467 39.5408 251.537 38.0508Z" fill="black"/>
<path fill-rule="evenodd" clip-rule="evenodd" d="M713.867 291.723C714.343 293.383 713.646 293.658 711.773 292.548C712.471 292.273 713.169 291.998 713.867 291.723Z" fill="black"/>
<path fill-rule="evenodd" clip-rule="evenodd" d="M671.484 421.909C672.233 421.913 672.982 421.919 673.723 421.923C672.972 421.919 672.228 421.913 671.484 421.909Z" fill="black"/>
<path fill-rule="evenodd" clip-rule="evenodd" d="M529.727 301.814C528.475 302.767 527.231 302.901 525.996 301.763C527.24 301.781 528.483 301.797 529.727 301.814Z" fill="black"/>
<path fill-rule="evenodd" clip-rule="evenodd" d="M501.796 174.586C501.765 175.832 501.733 177.076 501.7 178.316C501.731 177.07 501.764 175.828 501.796 174.586Z" fill="black"/>
<path fill-rule="evenodd" clip-rule="evenodd" d="M566.285 59.4634C565.042 59.4627 563.797 59.4612 562.555 59.4597C563.799 58.9941 565.043 59.1471 566.285 59.4634Z" fill="black"/>
<path fill-rule="evenodd" clip-rule="evenodd" d="M201.445 44.2829C200.202 44.356 198.958 44.4291 197.715 44.5023C198.958 44.4291 200.202 44.356 201.445 44.2829Z" fill="black"/>
<path fill-rule="evenodd" clip-rule="evenodd" d="M232.035 44.5194C231.04 44.4351 230.045 44.3501 229.051 44.2657C230.045 44.3501 231.039 44.4351 232.035 44.5194Z" fill="black"/>
<path fill-rule="evenodd" clip-rule="evenodd" d="M248.449 45.7018C247.455 46.0727 246.46 46.292 245.465 45.7071C246.46 45.7056 247.455 45.7033 248.449 45.7018Z" fill="black"/>
<path fill-rule="evenodd" clip-rule="evenodd" d="M159.664 47.7448C158.42 47.9977 157.177 48.2506 155.934 48.5013C157.178 48.2506 158.421 47.9977 159.664 47.7448Z" fill="black"/>
<path fill-rule="evenodd" clip-rule="evenodd" d="M502.545 351.41C502.511 352.158 502.476 352.904 502.443 353.648C502.478 352.9 502.511 352.155 502.545 351.41Z" fill="black"/>
<path fill-rule="evenodd" clip-rule="evenodd" d="M91.3752 290.977C91.3901 291.475 91.4043 291.974 91.4178 292.469C91.4021 291.969 91.3894 291.473 91.3752 290.977Z" fill="black"/>
<path fill-rule="evenodd" clip-rule="evenodd" d="M718.488 288.3L714.758 288.319C715.998 287.392 717.243 287.51 718.488 288.3Z" fill="black"/>
<path fill-rule="evenodd" clip-rule="evenodd" d="M463.324 283.016C462.328 282.852 461.334 282.687 460.34 282.523C461.334 282.687 462.329 282.852 463.324 283.016Z" fill="black"/>
<path fill-rule="evenodd" clip-rule="evenodd" d="M190.254 456.6C189.01 456.358 187.767 456.114 186.523 455.873L190.254 456.6Z" fill="black"/>
<path fill-rule="evenodd" clip-rule="evenodd" d="M441.349 242.48C441.326 241.733 441.303 240.986 441.28 240.242C441.303 240.989 441.326 241.735 441.349 242.48Z" fill="black"/>
<path fill-rule="evenodd" clip-rule="evenodd" d="M205.176 44.5303C204.429 44.4385 203.683 44.3467 202.938 44.2549C203.683 44.3467 204.429 44.4385 205.176 44.5303Z" fill="black"/>
<path fill-rule="evenodd" clip-rule="evenodd" d="M327.535 26.0793C326.789 25.8533 326.042 25.6272 325.297 25.4011C326.043 25.6272 326.789 25.8533 327.535 26.0793Z" fill="black"/>
<path fill-rule="evenodd" clip-rule="evenodd" d="M416.32 529.308C416.819 529.339 417.319 529.369 417.812 529.399C417.311 529.368 416.815 529.338 416.32 529.308Z" fill="black"/>
<path fill-rule="evenodd" clip-rule="evenodd" d="M73.8633 128.671C74.6123 128.691 75.3613 128.711 76.1016 128.731C75.3488 128.711 74.606 128.691 73.8633 128.671Z" fill="black"/>
<path fill-rule="evenodd" clip-rule="evenodd" d="M574.492 60.1919C573.249 60.1046 572.005 60.0173 570.762 59.9293C572.006 60.0173 573.249 60.1046 574.492 60.1919Z" fill="black"/>
<path fill-rule="evenodd" clip-rule="evenodd" d="M181.301 56.6987C179.556 56.7017 177.813 56.7046 176.078 56.7076C177.827 56.7046 179.564 56.7017 181.301 56.6987Z" fill="black"/>
<path fill-rule="evenodd" clip-rule="evenodd" d="M533.794 210.398C533.817 211.644 533.841 212.889 533.866 214.129C533.843 212.883 533.821 211.64 533.794 210.398Z" fill="black"/>
<path fill-rule="evenodd" clip-rule="evenodd" d="M442.434 477.524C441.435 477.509 440.439 477.493 439.449 477.476C440.449 477.49 441.441 477.507 442.434 477.524Z" fill="black"/>
<path fill-rule="evenodd" clip-rule="evenodd" d="M548.379 82.2149C549.871 82.0493 551.363 81.8836 552.855 81.718C551.423 82.9849 549.876 82.1418 548.379 82.2149Z" fill="black"/>
<path fill-rule="evenodd" clip-rule="evenodd" d="M434.227 477.914C433.478 477.886 432.73 477.858 431.988 477.832C432.739 477.86 433.483 477.887 434.227 477.914Z" fill="black"/>
<path fill-rule="evenodd" clip-rule="evenodd" d="M408.43 490.93C408.467 492.175 408.505 493.42 408.543 494.66C408.506 493.412 408.468 492.171 408.43 490.93Z" fill="black"/>
<path fill-rule="evenodd" clip-rule="evenodd" d="M522.266 128.028C523.261 127.935 524.256 127.843 525.25 127.751C524.342 128.451 523.275 128.041 522.266 128.028Z" fill="black"/>
<path fill-rule="evenodd" clip-rule="evenodd" d="M196.223 326.515C197.217 326.699 198.213 326.881 199.207 327.063C198.212 326.881 197.217 326.699 196.223 326.515Z" fill="black"/>
<path fill-rule="evenodd" clip-rule="evenodd" d="M351.41 130.197C352.651 129.139 353.895 129.253 355.141 130.185C353.897 130.188 352.654 130.192 351.41 130.197Z" fill="black"/>
<path fill-rule="evenodd" clip-rule="evenodd" d="M304.725 167.871C304.761 167.373 304.796 166.876 304.834 166.379C304.799 166.877 304.762 167.374 304.725 167.871Z" fill="black"/>
<path fill-rule="evenodd" clip-rule="evenodd" d="M521.877 153.695C521.887 154.692 521.897 155.688 521.908 156.68C521.899 155.681 521.888 154.688 521.877 153.695Z" fill="black"/>
<path fill-rule="evenodd" clip-rule="evenodd" d="M192.704 309.652C194.341 310.207 197.634 311.884 199.541 311.662C201.068 311.483 202.327 309.627 203.8 309.629C207.765 309.634 207.03 314.218 205.114 316.679C199.932 323.335 188.354 316.117 192.704 309.652Z" fill="black"/>
<path fill-rule="evenodd" clip-rule="evenodd" d="M208.889 285.754C214.297 287.15 211.604 299.045 207.058 299.863C201.705 300.826 200.772 291.154 201.83 287.658C204.584 289.295 202.879 295.134 206.35 293.52C208.558 292.492 208.222 287.743 208.889 285.754Z" fill="black"/>
</svg>
